{
    "patcher": {
        "fileversion": 1,
        "appversion": {
            "major": 9,
            "minor": 2,
            "revision": 0,
            "architecture": "x64",
            "modernui": 1
        },
        "classnamespace": "box",
        "rect": [ 76.0, 87.0, 1907.0, 1319.0 ],
        "boxes": [
            {
                "box": {
                    "attr": "maxframes",
                    "id": "obj-92",
                    "maxclass": "attrui",
                    "numinlets": 1,
                    "numoutlets": 1,
                    "outlettype": [ "" ],
                    "parameter_enable": 0,
                    "patching_rect": [ 1475.0, 924.0, 150.0, 22.0 ]
                }
            },
            {
                "box": {
                    "id": "obj-90",
                    "maxclass": "message",
                    "numinlets": 2,
                    "numoutlets": 1,
                    "outlettype": [ "" ],
                    "patching_rect": [ 1090.0, 719.0, 50.0, 22.0 ],
                    "text": "clearall"
                }
            },
            {
                "box": {
                    "id": "obj-89",
                    "maxclass": "message",
                    "numinlets": 2,
                    "numoutlets": 1,
                    "outlettype": [ "" ],
                    "patching_rect": [ 615.0, 889.0, 50.0, 22.0 ],
                    "text": "clearall"
                }
            },
            {
                "box": {
                    "format": 6,
                    "id": "obj-87",
                    "maxclass": "flonum",
                    "numinlets": 1,
                    "numoutlets": 2,
                    "outlettype": [ "", "bang" ],
                    "parameter_enable": 0,
                    "patching_rect": [ 1090.0, 954.0, 50.0, 22.0 ]
                }
            },
            {
                "box": {
                    "alignviewbounds": 0,
                    "autobounds": 0,
                    "autorefreshrate": 0,
                    "autoupdate": 120.0,
                    "bgcolor": [ 1.0, 1.0, 1.0, 1.0 ],
                    "bgcolordefault": 1,
                    "bufferchooser_bgcolor": [ 1.0, 1.0, 1.0, 1.0 ],
                    "bufferchooser_bgcolordefault": 1,
                    "bufferchooser_fgcolor": [ 0.129412, 0.129412, 0.129412, 1.0 ],
                    "bufferchooser_fgcolordefault": 0,
                    "bufferchooser_position": 1,
                    "bufferchooser_shape": "buttons",
                    "bufferchooser_size": 15,
                    "bufferchooser_visible": 1,
                    "continousediting": 0,
                    "cursor_circleedgecolor": [ 1.0, 0.0, 0.0, 1.0 ],
                    "cursor_circlefillcolor": [ 1.0, 0.0, 0.0, 1.0 ],
                    "cursor_circlefilled": 1,
                    "cursor_circleheight": 3.0,
                    "cursor_circlewidth": 3.0,
                    "cursor_color": [ 1.0, 0.0, 0.0, 1.0 ],
                    "cursor_crossheight": -1.0,
                    "cursor_crosssizeunit": 0,
                    "cursor_crosswidth": -1.0,
                    "cursor_followmouse": 0,
                    "cursor_label": "",
                    "cursor_labelcolor": [ 0.0, 0.0, 0.0, 1.0 ],
                    "cursor_labelfontsize": 12,
                    "cursor_labelposition": 0,
                    "cursor_labelxoffset": 0,
                    "cursor_labelyoffset": 0,
                    "cursor_nearest": 0,
                    "cursor_nearestcolor": [ 1.0, 0.0, 0.0, 1.0 ],
                    "cursor_noringoffset": 0,
                    "cursor_numextracursors": 0,
                    "cursor_outputdata": 0,
                    "cursor_position": [ 0.0, 0.0 ],
                    "cursor_shape": "bar",
                    "cursor_size": 3.0,
                    "cursor_sizeunit": 0,
                    "cursor_symbol": "circle",
                    "cursor_symboledgecolor": [ 1.0, 0.0, 0.0, 1.0 ],
                    "cursor_symbolfillcolor": [ 1.0, 0.0, 0.0, 1.0 ],
                    "cursor_symbolfilled": 1,
                    "cursor_symbolheight": 3.0,
                    "cursor_symbolsizeunit": 0,
                    "cursor_symbolwidth": 3.0,
                    "cursor_visible": 1,
                    "dirtypatcher": 1,
                    "domain_bounds": [ -1219.627112769362, 3061.455267484633 ],
                    "domainruler_bgcolor": [ 1.0, 1.0, 1.0, 1.0 ],
                    "domainruler_bgcolordefault": 1,
                    "domainruler_fgcolor": [ 0.129412, 0.129412, 0.129412, 1.0 ],
                    "domainruler_fgcolordefault": 1,
                    "domainruler_grid": 0,
                    "domainruler_position": 0,
                    "domainruler_size": 15,
                    "domainruler_unit": 3,
                    "domainruler_visible": 1,
                    "domainscrollbar_color": [ 1.0, 1.0, 1.0, 1.0 ],
                    "domainscrollbar_colordefault": 1,
                    "domainscrollbar_size": 10,
                    "domainscrollbar_visible": 1,
                    "embed": 0,
                    "enablemousewheel": 1,
                    "externalfiles": 1,
                    "filename": "",
                    "foremost": 1,
                    "freeze": 0,
                    "id": "obj-61",
                    "layout": 0,
                    "maintrack": -1,
                    "maxclass": "imubu",
                    "mousewheelscroll": 1,
                    "mousewheelshiftstep": 40,
                    "mousewheelstep": 4,
                    "name": "m",
                    "numinlets": 1,
                    "numoutlets": 1,
                    "opacity": 0.0,
                    "opacityprogressive": 0,
                    "orientation": 0,
                    "outlettype": [ "" ],
                    "outputkeys": 0,
                    "outputmouse": 0,
                    "outputrangeselection": 0,
                    "outputselection": 0,
                    "outputtimeselection": 0,
                    "outputvalues": 0,
                    "outputviewname": 0,
                    "parameter_enable": 0,
                    "patching_rect": [ 554.0, 1080.0, 462.0, 253.0 ],
                    "rangeruler_bgcolor": [ 1.0, 1.0, 1.0, 1.0 ],
                    "rangeruler_bgcolordefault": 1,
                    "rangeruler_fgcolor": [ 0.129412, 0.129412, 0.129412, 1.0 ],
                    "rangeruler_fgcolordefault": 1,
                    "rangeruler_grid": 0,
                    "rangeruler_size": 32,
                    "rangeruler_visible": 1,
                    "refreshrate": 120.0,
                    "region_color": [ 1.0, 0.4000000059604645, 0.4000000059604645, 1.0 ],
                    "region_visible": 1,
                    "resamplefiles": 0,
                    "ringmaster": -1,
                    "snaprate": 1000.0,
                    "splitbars_color": [ 1.0, 1.0, 1.0, 1.0 ],
                    "splitbars_size": 2,
                    "splitbars_visible": 1,
                    "tabs_bgcolor": [ 1.0, 1.0, 1.0, 1.0 ],
                    "tabs_fgcolor": [ 0.129412, 0.129412, 0.129412, 1.0 ],
                    "tabs_position": 0,
                    "tabs_size": 20,
                    "tabs_visible": 1,
                    "tabsbgcolordefault": 1,
                    "tabsfgcolordefault": 1,
                    "tool": "edit",
                    "toolbar_bgcolor": [ 1.0, 1.0, 1.0, 1.0 ],
                    "toolbar_position": 1,
                    "toolbar_size": 30,
                    "toolbar_transposition": 0,
                    "toolbar_visible": 1,
                    "toolbarbgcolordefault": 1,
                    "useplaceholders": 1,
                    "verbose": 1,
                    "vieworder": [ "default" ],
                    "windresize": 0
                }
            },
            {
                "box": {
                    "id": "obj-59",
                    "maxclass": "message",
                    "numinlets": 2,
                    "numoutlets": 1,
                    "outlettype": [ "" ],
                    "patching_rect": [ 1520.0, 964.0, 164.0, 22.0 ],
                    "text": "view proc colormode rainbow"
                }
            },
            {
                "box": {
                    "id": "obj-63",
                    "maxclass": "newobj",
                    "numinlets": 2,
                    "numoutlets": 4,
                    "outlettype": [ "", "", "int", "" ],
                    "patching_rect": [ 1090.0, 924.0, 368.0, 22.0 ],
                    "saved_object_attributes": {
                        "verbose": 1
                    },
                    "text": "mubu.process rec audio ipt @progressoutput time @process 1"
                }
            },
            {
                "box": {
                    "id": "obj-62",
                    "maxclass": "toggle",
                    "numinlets": 1,
                    "numoutlets": 1,
                    "outlettype": [ "int" ],
                    "parameter_enable": 0,
                    "patching_rect": [ 1090.0, 798.0, 24.0, 24.0 ]
                }
            },
            {
                "box": {
                    "id": "obj-60",
                    "maxclass": "message",
                    "numinlets": 2,
                    "numoutlets": 1,
                    "outlettype": [ "" ],
                    "patching_rect": [ 1088.0, 849.0, 59.0, 22.0 ],
                    "text": "record $1"
                }
            },
            {
                "box": {
                    "id": "obj-57",
                    "maxclass": "newobj",
                    "numinlets": 1,
                    "numoutlets": 2,
                    "outlettype": [ "", "" ],
                    "patching_rect": [ 1088.0, 887.0, 291.0, 22.0 ],
                    "saved_object_attributes": {
                        "verbose": 1
                    },
                    "text": "mubu.record~ rec audio @predef 1 @maxsize 10min"
                }
            },
            {
                "box": {
                    "alignviewbounds": 0,
                    "autobounds": 0,
                    "autorefreshrate": 0,
                    "autoupdate": 120.0,
                    "bgcolor": [ 1.0, 1.0, 1.0, 1.0 ],
                    "bgcolordefault": 1,
                    "bufferchooser_bgcolor": [ 1.0, 1.0, 1.0, 1.0 ],
                    "bufferchooser_bgcolordefault": 1,
                    "bufferchooser_fgcolor": [ 0.129412, 0.129412, 0.129412, 1.0 ],
                    "bufferchooser_fgcolordefault": 0,
                    "bufferchooser_position": 1,
                    "bufferchooser_shape": "buttons",
                    "bufferchooser_size": 15,
                    "bufferchooser_visible": 1,
                    "continousediting": 0,
                    "cursor_circleedgecolor": [ 1.0, 0.0, 0.0, 1.0 ],
                    "cursor_circlefillcolor": [ 1.0, 0.0, 0.0, 1.0 ],
                    "cursor_circlefilled": 1,
                    "cursor_circleheight": 3.0,
                    "cursor_circlewidth": 3.0,
                    "cursor_color": [ 1.0, 0.0, 0.0, 1.0 ],
                    "cursor_crossheight": -1.0,
                    "cursor_crosssizeunit": 0,
                    "cursor_crosswidth": -1.0,
                    "cursor_followmouse": 0,
                    "cursor_label": "",
                    "cursor_labelcolor": [ 0.0, 0.0, 0.0, 1.0 ],
                    "cursor_labelfontsize": 12,
                    "cursor_labelposition": 0,
                    "cursor_labelxoffset": 0,
                    "cursor_labelyoffset": 0,
                    "cursor_nearest": 0,
                    "cursor_nearestcolor": [ 1.0, 0.0, 0.0, 1.0 ],
                    "cursor_noringoffset": 0,
                    "cursor_numextracursors": 0,
                    "cursor_outputdata": 0,
                    "cursor_position": [ 0.0, 0.0 ],
                    "cursor_shape": "bar",
                    "cursor_size": 3.0,
                    "cursor_sizeunit": 0,
                    "cursor_symbol": "circle",
                    "cursor_symboledgecolor": [ 1.0, 0.0, 0.0, 1.0 ],
                    "cursor_symbolfillcolor": [ 1.0, 0.0, 0.0, 1.0 ],
                    "cursor_symbolfilled": 1,
                    "cursor_symbolheight": 3.0,
                    "cursor_symbolsizeunit": 0,
                    "cursor_symbolwidth": 3.0,
                    "cursor_visible": 1,
                    "dirtypatcher": 1,
                    "domain_bounds": [ -30627.244470250178, 278592.263162846 ],
                    "domainruler_bgcolor": [ 1.0, 1.0, 1.0, 1.0 ],
                    "domainruler_bgcolordefault": 1,
                    "domainruler_fgcolor": [ 0.129412, 0.129412, 0.129412, 1.0 ],
                    "domainruler_fgcolordefault": 1,
                    "domainruler_grid": 0,
                    "domainruler_position": 0,
                    "domainruler_size": 20,
                    "domainruler_unit": 3,
                    "domainruler_visible": 1,
                    "domainscrollbar_color": [ 1.0, 1.0, 1.0, 1.0 ],
                    "domainscrollbar_colordefault": 1,
                    "domainscrollbar_size": 10,
                    "domainscrollbar_visible": 1,
                    "embed": 0,
                    "enablemousewheel": 1,
                    "externalfiles": 1,
                    "filename": "",
                    "foremost": 2,
                    "freeze": 0,
                    "id": "obj-54",
                    "layout": 0,
                    "maintrack": -1,
                    "maxclass": "imubu",
                    "mousewheelscroll": 1,
                    "mousewheelshiftstep": 40,
                    "mousewheelstep": 4,
                    "name": "rec",
                    "numinlets": 1,
                    "numoutlets": 1,
                    "opacity": 0.0,
                    "opacityprogressive": 0,
                    "orientation": 0,
                    "outlettype": [ "" ],
                    "outputkeys": 0,
                    "outputmouse": 0,
                    "outputrangeselection": 0,
                    "outputselection": 0,
                    "outputtimeselection": 0,
                    "outputvalues": 0,
                    "outputviewname": 0,
                    "parameter_enable": 0,
                    "patching_rect": [ 1067.0, 999.0, 611.0, 303.0 ],
                    "rangeruler_bgcolor": [ 1.0, 1.0, 1.0, 1.0 ],
                    "rangeruler_bgcolordefault": 1,
                    "rangeruler_fgcolor": [ 0.129412, 0.129412, 0.129412, 1.0 ],
                    "rangeruler_fgcolordefault": 1,
                    "rangeruler_grid": 0,
                    "rangeruler_size": 30,
                    "rangeruler_visible": 1,
                    "refreshrate": 120.0,
                    "region_color": [ 1.0, 0.4000000059604645, 0.4000000059604645, 1.0 ],
                    "region_visible": 1,
                    "resamplefiles": 0,
                    "ringmaster": -1,
                    "snaprate": 1000.0,
                    "splitbars_color": [ 1.0, 1.0, 1.0, 1.0 ],
                    "splitbars_size": 2,
                    "splitbars_visible": 1,
                    "tabs_bgcolor": [ 1.0, 1.0, 1.0, 1.0 ],
                    "tabs_fgcolor": [ 0.129412, 0.129412, 0.129412, 1.0 ],
                    "tabs_position": 0,
                    "tabs_size": 22,
                    "tabs_visible": 1,
                    "tabsbgcolordefault": 1,
                    "tabsfgcolordefault": 1,
                    "tool": "edit",
                    "toolbar_bgcolor": [ 1.0, 1.0, 1.0, 1.0 ],
                    "toolbar_position": 1,
                    "toolbar_size": 30,
                    "toolbar_transposition": 0,
                    "toolbar_visible": 1,
                    "toolbarbgcolordefault": 1,
                    "useplaceholders": 1,
                    "verbose": 1,
                    "vieworder": [ "default" ],
                    "windresize": 0
                }
            },
            {
                "box": {
                    "id": "obj-35",
                    "maxclass": "newobj",
                    "numinlets": 1,
                    "numoutlets": 1,
                    "outlettype": [ "" ],
                    "patching_rect": [ 1088.0, 755.0, 59.0, 22.0 ],
                    "saved_object_attributes": {
                        "dirtypatcher": 1,
                        "embed": 0,
                        "externalfiles": 1,
                        "maintrack": -1,
                        "parameter_enable": 0,
                        "parameter_mappable": 0,
                        "resamplefiles": 0,
                        "ringmaster": -1,
                        "savegui": 0,
                        "snaprate": 1000.0,
                        "verbose": 1
                    },
                    "text": "mubu rec"
                }
            },
            {
                "box": {
                    "id": "obj-86",
                    "maxclass": "message",
                    "numinlets": 2,
                    "numoutlets": 1,
                    "outlettype": [ "" ],
                    "patching_rect": [ 302.0, 924.0, 164.0, 22.0 ],
                    "text": "view proc colormode rainbow"
                }
            },
            {
                "box": {
                    "id": "obj-85",
                    "maxclass": "newobj",
                    "numinlets": 1,
                    "numoutlets": 1,
                    "outlettype": [ "" ],
                    "patching_rect": [ 95.0, 870.0, 29.0, 22.0 ],
                    "text": "thru"
                }
            },
            {
                "box": {
                    "id": "obj-82",
                    "maxclass": "message",
                    "numinlets": 2,
                    "numoutlets": 1,
                    "outlettype": [ "" ],
                    "patching_rect": [ 152.10000663995743, 789.0, 687.0, 22.0 ],
                    "text": "ipt.model \"/Users/schwarz/Documents/music/nicolas souchal/scpp 2019 trompette augmentee/trp_ipt/ipt_tilde/help/flute_help.ts\""
                }
            },
            {
                "box": {
                    "id": "obj-83",
                    "maxclass": "message",
                    "numinlets": 2,
                    "numoutlets": 1,
                    "outlettype": [ "" ],
                    "patching_rect": [ 949.0, 856.0, 50.0, 22.0 ],
                    "text": "writeall"
                }
            },
            {
                "box": {
                    "id": "obj-81",
                    "maxclass": "message",
                    "numinlets": 2,
                    "numoutlets": 1,
                    "outlettype": [ "" ],
                    "patching_rect": [ 302.0, 898.0, 224.0, 22.0 ],
                    "text": "view proc paramdisplayrange color reset"
                }
            },
            {
                "box": {
                    "id": "obj-79",
                    "maxclass": "message",
                    "numinlets": 2,
                    "numoutlets": 1,
                    "outlettype": [ "" ],
                    "patching_rect": [ 415.0, 867.0, 81.0, 22.0 ],
                    "text": "autobounds 1"
                }
            },
            {
                "box": {
                    "id": "obj-74",
                    "maxclass": "newobj",
                    "numinlets": 1,
                    "numoutlets": 1,
                    "outlettype": [ "bang" ],
                    "patching_rect": [ 65.0, 777.0, 58.0, 22.0 ],
                    "text": "loadbang"
                }
            },
            {
                "box": {
                    "id": "obj-77",
                    "maxclass": "message",
                    "numinlets": 2,
                    "numoutlets": 1,
                    "outlettype": [ "" ],
                    "patching_rect": [ 602.0, 938.0, 36.0, 22.0 ],
                    "text": "abort"
                }
            },
            {
                "box": {
                    "id": "obj-75",
                    "maxclass": "message",
                    "numinlets": 2,
                    "numoutlets": 1,
                    "outlettype": [ "" ],
                    "patching_rect": [ 977.0, 990.0, 50.0, 22.0 ],
                    "text": "alldone"
                }
            },
            {
                "box": {
                    "id": "obj-73",
                    "maxclass": "multislider",
                    "numinlets": 1,
                    "numoutlets": 2,
                    "orientation": 0,
                    "outlettype": [ "", "" ],
                    "parameter_enable": 0,
                    "patching_rect": [ 561.0, 1032.0, 394.0, 36.0 ],
                    "setminmax": [ 0.0, 1.0 ],
                    "setstyle": 1,
                    "size": 25,
                    "spacing": 1
                }
            },
            {
                "box": {
                    "id": "obj-67",
                    "maxclass": "message",
                    "numinlets": 2,
                    "numoutlets": 1,
                    "outlettype": [ "" ],
                    "patching_rect": [ 724.0, 856.0, 215.0, 22.0 ],
                    "text": "readfolder @name audio @recursive 1"
                }
            },
            {
                "box": {
                    "fontsize": 16.60342372719255,
                    "id": "obj-71",
                    "linecount": 8,
                    "maxclass": "message",
                    "numinlets": 2,
                    "numoutlets": 1,
                    "outlettype": [ "" ],
                    "patching_rect": [ 25.0, 1087.0, 121.0, 157.0 ],
                    "text": "brassy double-sound glissando harmon-mute marcato multiphonics ordinario slaps squeaky valve"
                }
            },
            {
                "box": {
                    "id": "obj-72",
                    "maxclass": "multislider",
                    "numinlets": 1,
                    "numoutlets": 2,
                    "orientation": 0,
                    "outlettype": [ "", "" ],
                    "parameter_enable": 0,
                    "patching_rect": [ 135.0, 1086.0, 268.0, 199.0 ],
                    "setminmax": [ 0.0, 1.0 ],
                    "setstyle": 1,
                    "size": 11,
                    "slidercolor": [ 0.011765, 0.396078, 0.752941, 1.0 ],
                    "spacing": 2
                }
            },
            {
                "box": {
                    "id": "obj-70",
                    "linecount": 2,
                    "maxclass": "message",
                    "numinlets": 2,
                    "numoutlets": 1,
                    "outlettype": [ "" ],
                    "patching_rect": [ 31.0, 1046.0, 485.0, 35.0 ],
                    "text": "0.005883 0.003777 0.00519 0.012331 0.004566 0.004625 0.004916 0.007874 0.011313 0.186421 0.753103"
                }
            },
            {
                "box": {
                    "id": "obj-69",
                    "maxclass": "message",
                    "numinlets": 2,
                    "numoutlets": 1,
                    "outlettype": [ "" ],
                    "patching_rect": [ 65.0, 812.6000090837479, 698.0, 22.0 ],
                    "text": "ipt.model \"/Users/schwarz/Documents/music/nicolas souchal/scpp 2019 trompette augmentee/trp_ipt/patch/nicolas_trp_2.ts\""
                }
            },
            {
                "box": {
                    "id": "obj-68",
                    "maxclass": "button",
                    "numinlets": 1,
                    "numoutlets": 1,
                    "outlettype": [ "bang" ],
                    "parameter_enable": 0,
                    "patching_rect": [ 561.0, 935.0, 24.0, 24.0 ]
                }
            },
            {
                "box": {
                    "id": "obj-66",
                    "maxclass": "message",
                    "numinlets": 2,
                    "numoutlets": 1,
                    "outlettype": [ "" ],
                    "patching_rect": [ 554.0, 856.0, 151.0, 22.0 ],
                    "text": "readappend @name audio"
                }
            },
            {
                "box": {
                    "id": "obj-65",
                    "maxclass": "newobj",
                    "numinlets": 1,
                    "numoutlets": 1,
                    "outlettype": [ "" ],
                    "patching_rect": [ 554.0, 889.0, 52.0, 22.0 ],
                    "saved_object_attributes": {
                        "dirtypatcher": 1,
                        "embed": 0,
                        "externalfiles": 1,
                        "maintrack": -1,
                        "parameter_enable": 0,
                        "parameter_mappable": 0,
                        "resamplefiles": 0,
                        "ringmaster": -1,
                        "savegui": 0,
                        "snaprate": 1000.0,
                        "verbose": 1
                    },
                    "text": "mubu m"
                }
            },
            {
                "box": {
                    "id": "obj-64",
                    "maxclass": "newobj",
                    "numinlets": 2,
                    "numoutlets": 4,
                    "outlettype": [ "", "", "int", "" ],
                    "patching_rect": [ 561.0, 990.0, 388.0, 22.0 ],
                    "saved_object_attributes": {
                        "verbose": 1
                    },
                    "text": "mubu.process m audio ipt @progressoutput input @priority default"
                }
            },
            {
                "box": {
                    "id": "obj-55",
                    "maxclass": "newobj",
                    "numinlets": 1,
                    "numoutlets": 3,
                    "outlettype": [ "", "float", "" ],
                    "patching_rect": [ 35.5, 964.0, 100.0, 22.0 ],
                    "saved_object_attributes": {
                        "active": 1
                    },
                    "text": "pipo~ ipt:mvavrg"
                }
            },
            {
                "box": {
                    "id": "obj-56",
                    "maxclass": "number",
                    "numinlets": 1,
                    "numoutlets": 2,
                    "outlettype": [ "", "bang" ],
                    "parameter_enable": 0,
                    "patching_rect": [ 1337.0, 502.00000685453415, 50.0, 22.0 ]
                }
            },
            {
                "box": {
                    "id": "obj-52",
                    "maxclass": "newobj",
                    "numinlets": 2,
                    "numoutlets": 2,
                    "outlettype": [ "", "" ],
                    "patching_rect": [ 1333.0, 459.00000685453415, 37.0, 22.0 ],
                    "text": "zl len"
                }
            },
            {
                "box": {
                    "id": "obj-53",
                    "maxclass": "newobj",
                    "numinlets": 1,
                    "numoutlets": 0,
                    "patching_rect": [ 747.0, 755.0, 100.0, 22.0 ],
                    "text": "s ipt-threshold"
                }
            },
            {
                "box": {
                    "id": "obj-51",
                    "maxclass": "live.dial",
                    "numinlets": 1,
                    "numoutlets": 2,
                    "outlettype": [ "", "float" ],
                    "parameter_enable": 1,
                    "patching_rect": [ 805.0, 149.0, 82.0, 48.0 ],
                    "saved_attribute_attributes": {
                        "valueof": {
                            "parameter_initial": [ -65 ],
                            "parameter_initial_enable": 1,
                            "parameter_linknames": 1,
                            "parameter_longname": "ipt-threshold",
                            "parameter_mmax": 0.0,
                            "parameter_mmin": -70.0,
                            "parameter_modmode": 3,
                            "parameter_shortname": "ipt-threshold",
                            "parameter_type": 0,
                            "parameter_unitstyle": 0
                        }
                    },
                    "varname": "ipt-threshold"
                }
            },
            {
                "box": {
                    "id": "obj-47",
                    "maxclass": "newobj",
                    "numinlets": 1,
                    "numoutlets": 0,
                    "patching_rect": [ 627.5, 755.0, 100.0, 22.0 ],
                    "text": "s ipt-classprob"
                }
            },
            {
                "box": {
                    "id": "obj-41",
                    "maxclass": "newobj",
                    "numinlets": 1,
                    "numoutlets": 0,
                    "patching_rect": [ 511.0, 755.0, 100.0, 22.0 ],
                    "text": "s ipt-classname"
                }
            },
            {
                "box": {
                    "id": "obj-39",
                    "maxclass": "newobj",
                    "numinlets": 1,
                    "numoutlets": 0,
                    "patching_rect": [ 406.5000053048134, 755.0, 100.0, 22.0 ],
                    "text": "s ipt-classindex"
                }
            },
            {
                "box": {
                    "id": "obj-31",
                    "maxclass": "multislider",
                    "numinlets": 1,
                    "numoutlets": 2,
                    "outlettype": [ "", "" ],
                    "parameter_enable": 0,
                    "patching_rect": [ 183.0, 641.0, 199.0, 141.0 ],
                    "setminmax": [ 1.0, 10.0 ],
                    "setstyle": 2
                }
            },
            {
                "box": {
                    "id": "obj-49",
                    "maxclass": "newobj",
                    "numinlets": 1,
                    "numoutlets": 1,
                    "outlettype": [ "" ],
                    "patching_rect": [ 445.6000066399574, 609.6000090837479, 100.0, 22.0 ],
                    "text": "array.tolist"
                }
            },
            {
                "box": {
                    "id": "obj-48",
                    "maxclass": "message",
                    "numinlets": 2,
                    "numoutlets": 1,
                    "outlettype": [ "" ],
                    "patching_rect": [ 424.5, 696.0, 506.0, 22.0 ],
                    "text": "1 1 1 1 1 1 1 1 1 1 1 1 1 1 1 1 1 1 1 1 1 1 1 1 1 1 1 1 1 1 1 1 1 1 1 1 1 1 1 1 1 1 1 1 1 1 1 1 1 1"
                }
            },
            {
                "box": {
                    "id": "obj-45",
                    "maxclass": "newobj",
                    "numinlets": 2,
                    "numoutlets": 2,
                    "outlettype": [ "", "int" ],
                    "patching_rect": [ 406.5000053048134, 546.0, 100.0, 22.0 ],
                    "text": "array.stream 50"
                }
            },
            {
                "box": {
                    "id": "obj-37",
                    "maxclass": "newobj",
                    "numinlets": 1,
                    "numoutlets": 4,
                    "outlettype": [ "signal", "signal", "signal", "signal" ],
                    "patching_rect": [ 200.0, 278.0, 100.0, 22.0 ],
                    "text": "mc.unpack~ 4"
                }
            },
            {
                "box": {
                    "channelcount": 4,
                    "clipheight": 50.0,
                    "data": {
                        "clips": [
                            {
                                "absolutepath": "trp impro constallation 1-2 2026-05-04@16-54-15.4ch.aiff",
                                "filename": "trp impro constallation 1-2 2026-05-04@16-54-15.4ch.aiff",
                                "filekind": "audiofile",
                                "id": "u061002795",
                                "loop": 0,
                                "content_state": {                                }
                            }
                        ]
                    },
                    "id": "obj-32",
                    "maxclass": "mc.playlist~",
                    "mode": "basic",
                    "numinlets": 1,
                    "numoutlets": 4,
                    "outlettype": [ "multichannelsignal", "signal", "", "dictionary" ],
                    "parameter_enable": 0,
                    "patching_rect": [ 200.0, 163.0, 300.0, 51.0 ],
                    "quality": "basic",
                    "saved_attribute_attributes": {
                        "candicane2": {
                            "expression": ""
                        },
                        "candicane3": {
                            "expression": ""
                        },
                        "candicane4": {
                            "expression": ""
                        },
                        "candicane5": {
                            "expression": ""
                        },
                        "candicane6": {
                            "expression": ""
                        },
                        "candicane7": {
                            "expression": ""
                        },
                        "candicane8": {
                            "expression": ""
                        }
                    }
                }
            },
            {
                "box": {
                    "fontsize": 16.60342372719255,
                    "id": "obj-29",
                    "linecount": 8,
                    "maxclass": "message",
                    "numinlets": 2,
                    "numoutlets": 1,
                    "outlettype": [ "" ],
                    "patching_rect": [ 573.0, 459.5, 121.0, 157.0 ],
                    "text": "brassy double-sound glissando harmon-mute marcato multiphonics ordinario slaps squeaky valve"
                }
            },
            {
                "box": {
                    "id": "obj-50",
                    "maxclass": "message",
                    "numinlets": 2,
                    "numoutlets": 1,
                    "outlettype": [ "" ],
                    "patching_rect": [ 1100.0, 541.0000068545341, 59.0, 22.0 ],
                    "text": "ordinario"
                }
            },
            {
                "box": {
                    "id": "obj-44",
                    "maxclass": "newobj",
                    "numinlets": 2,
                    "numoutlets": 2,
                    "outlettype": [ "", "" ],
                    "patching_rect": [ 1099.0, 502.00000685453415, 56.0, 22.0 ],
                    "text": "zl.lookup"
                }
            },
            {
                "box": {
                    "id": "obj-43",
                    "maxclass": "comment",
                    "numinlets": 1,
                    "numoutlets": 0,
                    "patching_rect": [ 683.0, 483.0, 150.0, 20.0 ],
                    "text": "double-sound"
                }
            },
            {
                "box": {
                    "id": "obj-42",
                    "maxclass": "comment",
                    "numinlets": 1,
                    "numoutlets": 0,
                    "patching_rect": [ 683.0, 460.0, 150.0, 20.0 ],
                    "text": "breath"
                }
            },
            {
                "box": {
                    "id": "obj-40",
                    "maxclass": "live.meter~",
                    "numinlets": 1,
                    "numoutlets": 2,
                    "outlettype": [ "float", "int" ],
                    "patching_rect": [ 262.78, 366.0, 25.0, 253.0 ]
                }
            },
            {
                "box": {
                    "fontsize": 16.60342372719255,
                    "id": "obj-38",
                    "linecount": 8,
                    "maxclass": "message",
                    "numinlets": 2,
                    "numoutlets": 1,
                    "outlettype": [ "" ],
                    "patching_rect": [ 1205.0, 529.0000068545341, 121.0, 157.0 ],
                    "text": "brassy double-sound glissando harmon-mute marcato multiphonics ordinario slaps squeaky valve"
                }
            },
            {
                "box": {
                    "id": "obj-36",
                    "maxclass": "message",
                    "numinlets": 2,
                    "numoutlets": 1,
                    "outlettype": [ "" ],
                    "patching_rect": [ 432.0, 333.6000049710274, 72.0, 22.0 ],
                    "text": "classnames"
                }
            },
            {
                "box": {
                    "id": "obj-34",
                    "maxclass": "newobj",
                    "numinlets": 2,
                    "numoutlets": 2,
                    "outlettype": [ "", "" ],
                    "patching_rect": [ 1210.0, 459.00000685453415, 103.0, 22.0 ],
                    "text": "route classnames"
                }
            },
            {
                "box": {
                    "id": "obj-33",
                    "maxclass": "newobj",
                    "numinlets": 1,
                    "numoutlets": 1,
                    "outlettype": [ "signal" ],
                    "patching_rect": [ 262.78, 321.62, 45.0, 22.0 ],
                    "text": "adc~ 1"
                }
            },
            {
                "box": {
                    "id": "obj-9",
                    "maxclass": "multislider",
                    "numinlets": 1,
                    "numoutlets": 2,
                    "orientation": 0,
                    "outlettype": [ "", "" ],
                    "parameter_enable": 0,
                    "patching_rect": [ 683.0, 458.0, 268.0, 199.0 ],
                    "setminmax": [ 0.0, 1.0 ],
                    "setstyle": 1,
                    "size": 10,
                    "slidercolor": [ 0.011765, 0.396078, 0.752941, 1.0 ],
                    "spacing": 2
                }
            },
            {
                "box": {
                    "id": "obj-46",
                    "maxclass": "newobj",
                    "numinlets": 1,
                    "numoutlets": 1,
                    "outlettype": [ "" ],
                    "patcher": {
                        "fileversion": 1,
                        "appversion": {
                            "major": 9,
                            "minor": 2,
                            "revision": 0,
                            "architecture": "x64",
                            "modernui": 1
                        },
                        "classnamespace": "box",
                        "rect": [ 694.0, 113.0, 346.0, 352.0 ],
                        "boxes": [
                            {
                                "box": {
                                    "comment": "",
                                    "id": "obj-1",
                                    "index": 1,
                                    "maxclass": "outlet",
                                    "numinlets": 1,
                                    "numoutlets": 0,
                                    "patching_rect": [ 50.0, 277.0, 30.0, 30.0 ]
                                }
                            },
                            {
                                "box": {
                                    "id": "obj-39",
                                    "maxclass": "newobj",
                                    "numinlets": 2,
                                    "numoutlets": 2,
                                    "outlettype": [ "", "" ],
                                    "patching_rect": [ 50.0, 157.0, 40.0, 22.0 ],
                                    "text": "zl sub"
                                }
                            },
                            {
                                "box": {
                                    "id": "obj-18",
                                    "maxclass": "newobj",
                                    "numinlets": 2,
                                    "numoutlets": 2,
                                    "outlettype": [ "", "" ],
                                    "patching_rect": [ 138.0, 157.0, 47.0, 22.0 ],
                                    "text": "zl nth 2"
                                }
                            },
                            {
                                "box": {
                                    "id": "obj-17",
                                    "maxclass": "newobj",
                                    "numinlets": 2,
                                    "numoutlets": 2,
                                    "outlettype": [ "", "" ],
                                    "patching_rect": [ 138.0, 129.0, 55.0, 22.0 ],
                                    "text": "zl sort -1"
                                }
                            },
                            {
                                "box": {
                                    "id": "obj-16",
                                    "maxclass": "newobj",
                                    "numinlets": 1,
                                    "numoutlets": 2,
                                    "outlettype": [ "", "" ],
                                    "patching_rect": [ 50.0, 100.0, 107.11999999999989, 22.0 ],
                                    "text": "t l l"
                                }
                            },
                            {
                                "box": {
                                    "comment": "",
                                    "id": "obj-42",
                                    "index": 1,
                                    "maxclass": "inlet",
                                    "numinlets": 0,
                                    "numoutlets": 1,
                                    "outlettype": [ "" ],
                                    "patching_rect": [ 50.000020333333396, 40.0, 30.0, 30.0 ]
                                }
                            }
                        ],
                        "lines": [
                            {
                                "patchline": {
                                    "destination": [ "obj-17", 0 ],
                                    "source": [ "obj-16", 1 ]
                                }
                            },
                            {
                                "patchline": {
                                    "destination": [ "obj-39", 0 ],
                                    "source": [ "obj-16", 0 ]
                                }
                            },
                            {
                                "patchline": {
                                    "destination": [ "obj-18", 0 ],
                                    "source": [ "obj-17", 0 ]
                                }
                            },
                            {
                                "patchline": {
                                    "destination": [ "obj-39", 1 ],
                                    "source": [ "obj-18", 0 ]
                                }
                            },
                            {
                                "patchline": {
                                    "destination": [ "obj-1", 0 ],
                                    "source": [ "obj-39", 0 ]
                                }
                            },
                            {
                                "patchline": {
                                    "destination": [ "obj-16", 0 ],
                                    "source": [ "obj-42", 0 ]
                                }
                            }
                        ]
                    },
                    "patching_rect": [ 1099.0, 459.00000685453415, 97.0, 22.0 ],
                    "text": "p 2nd_most_IPT"
                }
            },
            {
                "box": {
                    "fontname": "Lato Light",
                    "fontsize": 13.0,
                    "id": "obj-28",
                    "linecount": 2,
                    "maxclass": "comment",
                    "numinlets": 1,
                    "numoutlets": 0,
                    "patching_rect": [ 11.0, 83.0, 756.0, 38.0 ],
                    "text": "The ipt~ object analyzes incoming audio in real time and classifies instrumental playing techniques using a pre-trained Convolutional Neural Network (CNN) model. It provides the recognized class index, the class name, and the probability distribution of all classes. "
                }
            },
            {
                "box": {
                    "fontname": "Lato Light",
                    "fontsize": 13.0,
                    "id": "obj-27",
                    "maxclass": "comment",
                    "numinlets": 1,
                    "numoutlets": 0,
                    "patching_rect": [ 11.0, 118.0, 307.0, 22.0 ],
                    "text": "This example shows you the basics of the ipt~ object."
                }
            },
            {
                "box": {
                    "autofit": 1,
                    "id": "obj-11",
                    "maxclass": "fpic",
                    "numinlets": 1,
                    "numoutlets": 1,
                    "outlettype": [ "jit_matrix" ],
                    "patching_rect": [ 11.0, 10.0, 108.0, 54.0 ],
                    "pic": "logo.png"
                }
            },
            {
                "box": {
                    "angle": 270.0,
                    "bgcolor": [ 0.235, 0.235, 0.235, 1.0 ],
                    "id": "obj-18",
                    "maxclass": "panel",
                    "mode": 0,
                    "numinlets": 1,
                    "numoutlets": 0,
                    "patching_rect": [ 11.0, 10.0, 108.0, 54.0 ],
                    "proportion": 0.5,
                    "saved_attribute_attributes": {
                        "bgfillcolor": {
                            "expression": "themecolor.live_desktop"
                        }
                    },
                    "style": "MP-M4L"
                }
            },
            {
                "box": {
                    "bubble": 1,
                    "id": "obj-8",
                    "maxclass": "comment",
                    "numinlets": 1,
                    "numoutlets": 0,
                    "patching_rect": [ 735.0, 353.0, 168.0, 24.0 ],
                    "text": "Window of detection (ms)"
                }
            },
            {
                "box": {
                    "attr": "window",
                    "id": "obj-7",
                    "maxclass": "attrui",
                    "numinlets": 1,
                    "numoutlets": 1,
                    "outlettype": [ "" ],
                    "parameter_enable": 0,
                    "patching_rect": [ 578.0, 354.0, 150.0, 22.0 ],
                    "text_width": 105.5
                }
            },
            {
                "box": {
                    "id": "obj-26",
                    "maxclass": "comment",
                    "numinlets": 1,
                    "numoutlets": 0,
                    "patching_rect": [ 135.0, 264.0, 207.0, 20.0 ],
                    "text": "flute performance by Simone Conforti"
                }
            },
            {
                "box": {
                    "hidden": 1,
                    "id": "obj-30",
                    "maxclass": "newobj",
                    "numinlets": 0,
                    "numoutlets": 2,
                    "outlettype": [ "", "" ],
                    "patcher": {
                        "fileversion": 1,
                        "appversion": {
                            "major": 9,
                            "minor": 2,
                            "revision": 0,
                            "architecture": "x64",
                            "modernui": 1
                        },
                        "classnamespace": "box",
                        "rect": [ 93.0, 119.0, 168.0, 152.0 ],
                        "boxes": [
                            {
                                "box": {
                                    "id": "obj-27",
                                    "maxclass": "newobj",
                                    "numinlets": 1,
                                    "numoutlets": 1,
                                    "outlettype": [ "" ],
                                    "patching_rect": [ 20.0, 25.0, 80.0, 22.0 ],
                                    "text": "loadmess 0.5"
                                }
                            },
                            {
                                "box": {
                                    "id": "obj-26",
                                    "maxclass": "newobj",
                                    "numinlets": 1,
                                    "numoutlets": 1,
                                    "outlettype": [ "" ],
                                    "patching_rect": [ 55.0, 53.0, 83.0, 22.0 ],
                                    "text": "loadmess 500"
                                }
                            },
                            {
                                "box": {
                                    "comment": "",
                                    "id": "obj-28",
                                    "index": 1,
                                    "maxclass": "outlet",
                                    "numinlets": 1,
                                    "numoutlets": 0,
                                    "patching_rect": [ 20.0, 101.0, 30.0, 30.0 ]
                                }
                            },
                            {
                                "box": {
                                    "comment": "",
                                    "id": "obj-29",
                                    "index": 2,
                                    "maxclass": "outlet",
                                    "numinlets": 1,
                                    "numoutlets": 0,
                                    "patching_rect": [ 55.0, 101.0, 30.0, 30.0 ]
                                }
                            }
                        ],
                        "lines": [
                            {
                                "patchline": {
                                    "destination": [ "obj-29", 0 ],
                                    "source": [ "obj-26", 0 ]
                                }
                            },
                            {
                                "patchline": {
                                    "destination": [ "obj-28", 0 ],
                                    "source": [ "obj-27", 0 ]
                                }
                            }
                        ]
                    },
                    "patching_rect": [ 578.0, 185.0, 76.0, 22.0 ],
                    "text": "p loadvalues"
                }
            },
            {
                "box": {
                    "bubble": 1,
                    "bubbleside": 2,
                    "id": "obj-24",
                    "maxclass": "comment",
                    "numinlets": 1,
                    "numoutlets": 0,
                    "patching_rect": [ 586.0, 228.0, 183.0, 39.0 ],
                    "text": "Experiment with ipt~ parameters"
                }
            },
            {
                "box": {
                    "bubble": 1,
                    "bubbleside": 2,
                    "id": "obj-22",
                    "maxclass": "comment",
                    "numinlets": 1,
                    "numoutlets": 0,
                    "patching_rect": [ 31.0, 175.0, 111.0, 39.0 ],
                    "text": "Play flute soundfile"
                }
            },
            {
                "box": {
                    "bubble": 1,
                    "id": "obj-20",
                    "linecount": 2,
                    "maxclass": "comment",
                    "numinlets": 1,
                    "numoutlets": 0,
                    "patching_rect": [ 101.0, 358.0, 108.0, 37.0 ],
                    "text": "Adjust level for audio output"
                }
            },
            {
                "box": {
                    "bubble": 1,
                    "id": "obj-203",
                    "maxclass": "comment",
                    "numinlets": 1,
                    "numoutlets": 0,
                    "patching_rect": [ 114.0, 553.0, 94.0, 24.0 ],
                    "text": "Turn DSP on"
                }
            },
            {
                "box": {
                    "id": "obj-19",
                    "maxclass": "ezdac~",
                    "numinlets": 2,
                    "numoutlets": 0,
                    "patching_rect": [ 61.0, 542.0, 45.0, 45.0 ]
                }
            },
            {
                "box": {
                    "id": "obj-17",
                    "lastchannelcount": 0,
                    "maxclass": "live.gain~",
                    "numinlets": 2,
                    "numoutlets": 5,
                    "outlettype": [ "signal", "signal", "", "float", "list" ],
                    "parameter_enable": 1,
                    "patching_rect": [ 61.0, 354.0, 49.0, 138.0 ],
                    "saved_attribute_attributes": {
                        "valueof": {
                            "parameter_longname": "output",
                            "parameter_mmax": 6.0,
                            "parameter_mmin": -70.0,
                            "parameter_modmode": 3,
                            "parameter_shortname": "output",
                            "parameter_type": 0,
                            "parameter_unitstyle": 4
                        }
                    },
                    "varname": "live.gain~"
                }
            },
            {
                "box": {
                    "bubble": 1,
                    "bubbleside": 2,
                    "id": "obj-196",
                    "maxclass": "comment",
                    "numinlets": 1,
                    "numoutlets": 0,
                    "patching_rect": [ 412.0, 228.0, 112.0, 39.0 ],
                    "text": "Enable/disable ipt~"
                }
            },
            {
                "box": {
                    "bubble": 1,
                    "id": "obj-199",
                    "maxclass": "comment",
                    "numinlets": 1,
                    "numoutlets": 0,
                    "patching_rect": [ 735.0, 325.0, 170.0, 24.0 ],
                    "text": "Threshold of detection (dB)"
                }
            },
            {
                "box": {
                    "bubble": 1,
                    "id": "obj-198",
                    "maxclass": "comment",
                    "numinlets": 1,
                    "numoutlets": 0,
                    "patching_rect": [ 735.0, 297.0, 200.0, 24.0 ],
                    "text": "Range of sensitivity window (ms)"
                }
            },
            {
                "box": {
                    "bubble": 1,
                    "id": "obj-197",
                    "maxclass": "comment",
                    "numinlets": 1,
                    "numoutlets": 0,
                    "patching_rect": [ 735.0, 270.0, 242.0, 24.0 ],
                    "text": "ipt~ sensitivity factor (between 0. and 1.)"
                }
            },
            {
                "box": {
                    "clipheight": 41.0,
                    "data": {
                        "clips": [
                            {
                                "absolutepath": "flute_ipt_improvisation.wav",
                                "filename": "flute_ipt_improvisation.wav",
                                "filekind": "audiofile",
                                "id": "u982008764",
                                "loop": 0,
                                "content_state": {                                }
                            }
                        ]
                    },
                    "id": "obj-10",
                    "maxclass": "playlist~",
                    "mode": "basic",
                    "numinlets": 1,
                    "numoutlets": 5,
                    "outlettype": [ "signal", "signal", "signal", "", "dictionary" ],
                    "parameter_enable": 0,
                    "patching_rect": [ 31.0, 216.0, 281.0, 42.0 ],
                    "quality": "basic",
                    "saved_attribute_attributes": {
                        "candicane2": {
                            "expression": ""
                        },
                        "candicane3": {
                            "expression": ""
                        },
                        "candicane4": {
                            "expression": ""
                        },
                        "candicane5": {
                            "expression": ""
                        },
                        "candicane6": {
                            "expression": ""
                        },
                        "candicane7": {
                            "expression": ""
                        },
                        "candicane8": {
                            "expression": ""
                        }
                    }
                }
            },
            {
                "box": {
                    "bubble": 1,
                    "bubbleside": 0,
                    "id": "obj-150",
                    "linecount": 2,
                    "maxclass": "comment",
                    "numinlets": 1,
                    "numoutlets": 0,
                    "patching_rect": [ 425.0, 477.0, 113.0, 52.0 ],
                    "text": "Technique with highest probability"
                }
            },
            {
                "box": {
                    "bubble": 1,
                    "bubbleside": 0,
                    "id": "obj-5",
                    "linecount": 2,
                    "maxclass": "comment",
                    "numinlets": 1,
                    "numoutlets": 0,
                    "patching_rect": [ 295.0, 564.0, 135.0, 52.0 ],
                    "text": "Index of the technique with highest probability"
                }
            },
            {
                "box": {
                    "hidden": 1,
                    "id": "obj-3",
                    "maxclass": "newobj",
                    "numinlets": 1,
                    "numoutlets": 1,
                    "outlettype": [ "" ],
                    "patching_rect": [ 356.0, 218.0, 70.0, 22.0 ],
                    "text": "loadmess 0"
                }
            },
            {
                "box": {
                    "fontsize": 16.0,
                    "id": "obj-6",
                    "maxclass": "message",
                    "numinlets": 2,
                    "numoutlets": 1,
                    "outlettype": [ "" ],
                    "patching_rect": [ 384.0, 458.0, 109.0, 26.0 ],
                    "text": "double-sound"
                }
            },
            {
                "box": {
                    "fontsize": 16.0,
                    "id": "obj-4",
                    "maxclass": "message",
                    "numinlets": 2,
                    "numoutlets": 1,
                    "outlettype": [ "" ],
                    "patching_rect": [ 313.0, 544.0, 62.0, 26.0 ],
                    "text": "1"
                }
            },
            {
                "box": {
                    "id": "obj-1",
                    "maxclass": "newobj",
                    "numinlets": 1,
                    "numoutlets": 4,
                    "outlettype": [ "", "", "", "" ],
                    "patching_rect": [ 356.0000053048134, 412.0000061392784, 496.0, 22.0 ],
                    "text": "ipt~ trumpet_20260505_hires.ts @threshold -65 @sensitivityrange 500 @sensitivity 0.5"
                }
            },
            {
                "box": {
                    "border": 0,
                    "filename": "helpdetails.js",
                    "id": "obj-2",
                    "ignoreclick": 1,
                    "jsarguments": [ "ipt~" ],
                    "maxclass": "jsui",
                    "nofsaa": 1,
                    "numinlets": 1,
                    "numoutlets": 1,
                    "outlettype": [ "" ],
                    "parameter_enable": 0,
                    "patching_rect": [ 11.0, 10.0, 845.0, 120.0 ]
                }
            },
            {
                "box": {
                    "attr": "enabled",
                    "id": "obj-12",
                    "maxclass": "attrui",
                    "numinlets": 1,
                    "numoutlets": 1,
                    "outlettype": [ "" ],
                    "parameter_enable": 0,
                    "patching_rect": [ 356.0, 269.0, 150.0, 22.0 ]
                }
            },
            {
                "box": {
                    "attr": "sensitivity",
                    "id": "obj-13",
                    "maxclass": "attrui",
                    "numinlets": 1,
                    "numoutlets": 1,
                    "outlettype": [ "" ],
                    "parameter_enable": 0,
                    "patching_rect": [ 578.0, 271.0, 150.0, 22.0 ],
                    "text_width": 105.0
                }
            },
            {
                "box": {
                    "attr": "sensitivityrange",
                    "id": "obj-14",
                    "maxclass": "attrui",
                    "numinlets": 1,
                    "numoutlets": 1,
                    "outlettype": [ "" ],
                    "parameter_enable": 0,
                    "patching_rect": [ 578.0, 298.0, 150.0, 22.0 ],
                    "text_width": 105.0
                }
            },
            {
                "box": {
                    "attr": "threshold",
                    "id": "obj-15",
                    "maxclass": "attrui",
                    "numinlets": 1,
                    "numoutlets": 1,
                    "outlettype": [ "" ],
                    "parameter_enable": 0,
                    "patching_rect": [ 578.0, 326.0, 150.0, 22.0 ],
                    "text_width": 105.5
                }
            },
            {
                "box": {
                    "background": 1,
                    "bgcolor": [ 1.0, 0.658824, 0.14902, 1.0 ],
                    "fontname": "Arial Bold",
                    "hint": "",
                    "id": "obj-16",
                    "ignoreclick": 1,
                    "legacytextcolor": 1,
                    "maxclass": "textbutton",
                    "numinlets": 1,
                    "numoutlets": 3,
                    "outlettype": [ "", "", "int" ],
                    "parameter_enable": 0,
                    "patching_rect": [ 526.0, 230.0, 20.0, 20.0 ],
                    "rounded": 60.0,
                    "text": "2",
                    "textcolor": [ 0.2, 0.2, 0.2, 1.0 ]
                }
            },
            {
                "box": {
                    "background": 1,
                    "bgcolor": [ 1.0, 0.658824, 0.14902, 1.0 ],
                    "fontname": "Arial Bold",
                    "hint": "",
                    "id": "obj-25",
                    "ignoreclick": 1,
                    "legacytextcolor": 1,
                    "maxclass": "textbutton",
                    "numinlets": 1,
                    "numoutlets": 3,
                    "outlettype": [ "", "", "int" ],
                    "parameter_enable": 0,
                    "patching_rect": [ 771.0, 230.0, 20.0, 20.0 ],
                    "rounded": 60.0,
                    "text": "5",
                    "textcolor": [ 0.2, 0.2, 0.2, 1.0 ]
                }
            },
            {
                "box": {
                    "background": 1,
                    "bgcolor": [ 1.0, 0.658824, 0.14902, 1.0 ],
                    "fontname": "Arial Bold",
                    "hint": "",
                    "id": "obj-23",
                    "ignoreclick": 1,
                    "legacytextcolor": 1,
                    "maxclass": "textbutton",
                    "numinlets": 1,
                    "numoutlets": 3,
                    "outlettype": [ "", "", "int" ],
                    "parameter_enable": 0,
                    "patching_rect": [ 145.0, 177.0, 20.0, 20.0 ],
                    "rounded": 60.0,
                    "text": "3",
                    "textcolor": [ 0.2, 0.2, 0.2, 1.0 ]
                }
            },
            {
                "box": {
                    "background": 1,
                    "bgcolor": [ 1.0, 0.658824, 0.14902, 1.0 ],
                    "fontname": "Arial Bold",
                    "hint": "",
                    "id": "obj-21",
                    "ignoreclick": 1,
                    "legacytextcolor": 1,
                    "maxclass": "textbutton",
                    "numinlets": 1,
                    "numoutlets": 3,
                    "outlettype": [ "", "", "int" ],
                    "parameter_enable": 0,
                    "patching_rect": [ 214.0, 366.0, 20.0, 20.0 ],
                    "rounded": 60.0,
                    "text": "4",
                    "textcolor": [ 0.2, 0.2, 0.2, 1.0 ]
                }
            },
            {
                "box": {
                    "background": 1,
                    "bgcolor": [ 1.0, 0.658824, 0.14902, 1.0 ],
                    "fontname": "Arial Bold",
                    "hint": "",
                    "id": "obj-58",
                    "ignoreclick": 1,
                    "legacytextcolor": 1,
                    "maxclass": "textbutton",
                    "numinlets": 1,
                    "numoutlets": 3,
                    "outlettype": [ "", "", "int" ],
                    "parameter_enable": 0,
                    "patching_rect": [ 214.0, 555.0, 20.0, 20.0 ],
                    "rounded": 60.0,
                    "text": "1",
                    "textcolor": [ 0.2, 0.2, 0.2, 1.0 ]
                }
            },
            {
                "box": {
                    "attr": "priority",
                    "id": "obj-76",
                    "maxclass": "attrui",
                    "numinlets": 1,
                    "numoutlets": 1,
                    "outlettype": [ "" ],
                    "parameter_enable": 0,
                    "patching_rect": [ 655.0, 938.0, 150.0, 22.0 ],
                    "text_width": 79.0
                }
            },
            {
                "box": {
                    "attr": "ipt.device",
                    "id": "obj-84",
                    "maxclass": "attrui",
                    "numinlets": 1,
                    "numoutlets": 1,
                    "outlettype": [ "" ],
                    "parameter_enable": 0,
                    "patching_rect": [ 811.0, 938.0, 150.0, 22.0 ],
                    "text_width": 82.0
                }
            },
            {
                "box": {
                    "attr": "mvavrg.size",
                    "id": "obj-78",
                    "maxclass": "attrui",
                    "numinlets": 1,
                    "numoutlets": 1,
                    "outlettype": [ "" ],
                    "parameter_enable": 0,
                    "patching_rect": [ 36.0, 934.0, 150.0, 22.0 ]
                }
            },
            {
                "box": {
                    "attr": "ipt.model",
                    "id": "obj-88",
                    "maxclass": "attrui",
                    "numinlets": 1,
                    "numoutlets": 1,
                    "outlettype": [ "" ],
                    "parameter_enable": 0,
                    "patching_rect": [ 1395.0, 887.0, 661.0, 22.0 ]
                }
            },
            {
                "box": {
                    "attr": "maxframes",
                    "id": "obj-91",
                    "maxclass": "attrui",
                    "numinlets": 1,
                    "numoutlets": 1,
                    "outlettype": [ "" ],
                    "parameter_enable": 0,
                    "patching_rect": [ 811.0, 964.0, 150.0, 22.0 ]
                }
            }
        ],
        "lines": [
            {
                "patchline": {
                    "destination": [ "obj-31", 0 ],
                    "order": 3,
                    "source": [ "obj-1", 0 ]
                }
            },
            {
                "patchline": {
                    "destination": [ "obj-34", 0 ],
                    "midpoints": [ 842.5000053048134, 447.0000030696392, 1219.5, 447.0000030696392 ],
                    "source": [ "obj-1", 3 ]
                }
            },
            {
                "patchline": {
                    "destination": [ "obj-39", 0 ],
                    "order": 0,
                    "source": [ "obj-1", 0 ]
                }
            },
            {
                "patchline": {
                    "destination": [ "obj-4", 1 ],
                    "order": 2,
                    "source": [ "obj-1", 0 ]
                }
            },
            {
                "patchline": {
                    "destination": [ "obj-41", 0 ],
                    "order": 0,
                    "source": [ "obj-1", 1 ]
                }
            },
            {
                "patchline": {
                    "destination": [ "obj-45", 0 ],
                    "order": 1,
                    "source": [ "obj-1", 0 ]
                }
            },
            {
                "patchline": {
                    "destination": [ "obj-46", 0 ],
                    "midpoints": [ 683.5000053048134, 445.58984375, 1108.5, 445.58984375 ],
                    "order": 0,
                    "source": [ "obj-1", 2 ]
                }
            },
            {
                "patchline": {
                    "destination": [ "obj-47", 0 ],
                    "order": 2,
                    "source": [ "obj-1", 2 ]
                }
            },
            {
                "patchline": {
                    "destination": [ "obj-6", 1 ],
                    "midpoints": [ 524.5000053048134, 446.5, 483.5, 446.5 ],
                    "order": 1,
                    "source": [ "obj-1", 1 ]
                }
            },
            {
                "patchline": {
                    "destination": [ "obj-9", 0 ],
                    "midpoints": [ 683.5000053048134, 446.0, 692.5, 446.0 ],
                    "order": 1,
                    "source": [ "obj-1", 2 ]
                }
            },
            {
                "patchline": {
                    "destination": [ "obj-17", 1 ],
                    "midpoints": [ 40.5, 342.58203125, 100.5, 342.58203125 ],
                    "order": 1,
                    "source": [ "obj-10", 0 ]
                }
            },
            {
                "patchline": {
                    "destination": [ "obj-17", 0 ],
                    "order": 2,
                    "source": [ "obj-10", 0 ]
                }
            },
            {
                "patchline": {
                    "destination": [ "obj-55", 0 ],
                    "order": 3,
                    "source": [ "obj-10", 0 ]
                }
            },
            {
                "patchline": {
                    "destination": [ "obj-57", 0 ],
                    "order": 0,
                    "source": [ "obj-10", 0 ]
                }
            },
            {
                "patchline": {
                    "destination": [ "obj-1", 0 ],
                    "source": [ "obj-12", 0 ]
                }
            },
            {
                "patchline": {
                    "destination": [ "obj-1", 0 ],
                    "midpoints": [ 587.5, 394.5234375, 365.5000053048134, 394.5234375 ],
                    "source": [ "obj-13", 0 ]
                }
            },
            {
                "patchline": {
                    "destination": [ "obj-1", 0 ],
                    "midpoints": [ 587.5, 394.337890625, 365.5000053048134, 394.337890625 ],
                    "source": [ "obj-14", 0 ]
                }
            },
            {
                "patchline": {
                    "destination": [ "obj-1", 0 ],
                    "midpoints": [ 587.5, 394.4296875, 365.5000053048134, 394.4296875 ],
                    "source": [ "obj-15", 0 ]
                }
            },
            {
                "patchline": {
                    "destination": [ "obj-19", 1 ],
                    "midpoints": [ 78.0, 517.5, 96.5, 517.5 ],
                    "source": [ "obj-17", 1 ]
                }
            },
            {
                "patchline": {
                    "destination": [ "obj-19", 0 ],
                    "source": [ "obj-17", 0 ]
                }
            },
            {
                "patchline": {
                    "destination": [ "obj-12", 0 ],
                    "hidden": 1,
                    "source": [ "obj-3", 0 ]
                }
            },
            {
                "patchline": {
                    "destination": [ "obj-13", 0 ],
                    "hidden": 1,
                    "source": [ "obj-30", 0 ]
                }
            },
            {
                "patchline": {
                    "destination": [ "obj-14", 0 ],
                    "hidden": 1,
                    "source": [ "obj-30", 1 ]
                }
            },
            {
                "patchline": {
                    "destination": [ "obj-37", 0 ],
                    "source": [ "obj-32", 0 ]
                }
            },
            {
                "patchline": {
                    "destination": [ "obj-1", 0 ],
                    "order": 0,
                    "source": [ "obj-33", 0 ]
                }
            },
            {
                "patchline": {
                    "destination": [ "obj-40", 0 ],
                    "order": 1,
                    "source": [ "obj-33", 0 ]
                }
            },
            {
                "patchline": {
                    "destination": [ "obj-38", 1 ],
                    "order": 1,
                    "source": [ "obj-34", 0 ]
                }
            },
            {
                "patchline": {
                    "destination": [ "obj-44", 1 ],
                    "order": 2,
                    "source": [ "obj-34", 0 ]
                }
            },
            {
                "patchline": {
                    "destination": [ "obj-52", 0 ],
                    "order": 0,
                    "source": [ "obj-34", 0 ]
                }
            },
            {
                "patchline": {
                    "destination": [ "obj-1", 0 ],
                    "source": [ "obj-36", 0 ]
                }
            },
            {
                "patchline": {
                    "destination": [ "obj-1", 0 ],
                    "order": 0,
                    "source": [ "obj-37", 2 ]
                }
            },
            {
                "patchline": {
                    "destination": [ "obj-17", 1 ],
                    "source": [ "obj-37", 3 ]
                }
            },
            {
                "patchline": {
                    "destination": [ "obj-17", 0 ],
                    "order": 1,
                    "source": [ "obj-37", 2 ]
                }
            },
            {
                "patchline": {
                    "destination": [ "obj-50", 1 ],
                    "source": [ "obj-44", 0 ]
                }
            },
            {
                "patchline": {
                    "destination": [ "obj-49", 0 ],
                    "source": [ "obj-45", 0 ]
                }
            },
            {
                "patchline": {
                    "destination": [ "obj-44", 0 ],
                    "source": [ "obj-46", 0 ]
                }
            },
            {
                "patchline": {
                    "destination": [ "obj-48", 1 ],
                    "source": [ "obj-49", 0 ]
                }
            },
            {
                "patchline": {
                    "destination": [ "obj-15", 0 ],
                    "order": 1,
                    "source": [ "obj-51", 0 ]
                }
            },
            {
                "patchline": {
                    "destination": [ "obj-53", 0 ],
                    "order": 0,
                    "source": [ "obj-51", 0 ]
                }
            },
            {
                "patchline": {
                    "destination": [ "obj-56", 0 ],
                    "source": [ "obj-52", 0 ]
                }
            },
            {
                "patchline": {
                    "destination": [ "obj-70", 1 ],
                    "order": 0,
                    "source": [ "obj-55", 0 ]
                }
            },
            {
                "patchline": {
                    "destination": [ "obj-72", 0 ],
                    "order": 1,
                    "source": [ "obj-55", 0 ]
                }
            },
            {
                "patchline": {
                    "destination": [ "obj-54", 0 ],
                    "source": [ "obj-59", 0 ]
                }
            },
            {
                "patchline": {
                    "destination": [ "obj-57", 0 ],
                    "source": [ "obj-60", 0 ]
                }
            },
            {
                "patchline": {
                    "destination": [ "obj-60", 0 ],
                    "source": [ "obj-62", 0 ]
                }
            },
            {
                "patchline": {
                    "destination": [ "obj-87", 0 ],
                    "source": [ "obj-63", 0 ]
                }
            },
            {
                "patchline": {
                    "destination": [ "obj-73", 0 ],
                    "source": [ "obj-64", 0 ]
                }
            },
            {
                "patchline": {
                    "destination": [ "obj-75", 1 ],
                    "source": [ "obj-64", 3 ]
                }
            },
            {
                "patchline": {
                    "destination": [ "obj-65", 0 ],
                    "source": [ "obj-66", 0 ]
                }
            },
            {
                "patchline": {
                    "destination": [ "obj-65", 0 ],
                    "source": [ "obj-67", 0 ]
                }
            },
            {
                "patchline": {
                    "destination": [ "obj-64", 0 ],
                    "source": [ "obj-68", 0 ]
                }
            },
            {
                "patchline": {
                    "destination": [ "obj-85", 0 ],
                    "source": [ "obj-69", 0 ]
                }
            },
            {
                "patchline": {
                    "destination": [ "obj-1", 0 ],
                    "midpoints": [ 587.5, 394.5, 365.5000053048134, 394.5 ],
                    "source": [ "obj-7", 0 ]
                }
            },
            {
                "patchline": {
                    "destination": [ "obj-69", 0 ],
                    "source": [ "obj-74", 0 ]
                }
            },
            {
                "patchline": {
                    "destination": [ "obj-64", 0 ],
                    "source": [ "obj-76", 0 ]
                }
            },
            {
                "patchline": {
                    "destination": [ "obj-64", 0 ],
                    "source": [ "obj-77", 0 ]
                }
            },
            {
                "patchline": {
                    "destination": [ "obj-55", 0 ],
                    "source": [ "obj-78", 0 ]
                }
            },
            {
                "patchline": {
                    "destination": [ "obj-65", 0 ],
                    "source": [ "obj-79", 0 ]
                }
            },
            {
                "patchline": {
                    "destination": [ "obj-65", 0 ],
                    "source": [ "obj-81", 0 ]
                }
            },
            {
                "patchline": {
                    "destination": [ "obj-85", 0 ],
                    "source": [ "obj-82", 0 ]
                }
            },
            {
                "patchline": {
                    "destination": [ "obj-65", 0 ],
                    "source": [ "obj-83", 0 ]
                }
            },
            {
                "patchline": {
                    "destination": [ "obj-64", 0 ],
                    "source": [ "obj-84", 0 ]
                }
            },
            {
                "patchline": {
                    "destination": [ "obj-55", 0 ],
                    "order": 2,
                    "source": [ "obj-85", 0 ]
                }
            },
            {
                "patchline": {
                    "destination": [ "obj-63", 0 ],
                    "order": 0,
                    "source": [ "obj-85", 0 ]
                }
            },
            {
                "patchline": {
                    "destination": [ "obj-64", 0 ],
                    "order": 1,
                    "source": [ "obj-85", 0 ]
                }
            },
            {
                "patchline": {
                    "destination": [ "obj-61", 0 ],
                    "order": 0,
                    "source": [ "obj-86", 0 ]
                }
            },
            {
                "patchline": {
                    "destination": [ "obj-65", 0 ],
                    "order": 1,
                    "source": [ "obj-86", 0 ]
                }
            },
            {
                "patchline": {
                    "destination": [ "obj-63", 0 ],
                    "source": [ "obj-88", 0 ]
                }
            },
            {
                "patchline": {
                    "destination": [ "obj-65", 0 ],
                    "source": [ "obj-89", 0 ]
                }
            },
            {
                "patchline": {
                    "destination": [ "obj-35", 0 ],
                    "source": [ "obj-90", 0 ]
                }
            },
            {
                "patchline": {
                    "destination": [ "obj-64", 0 ],
                    "source": [ "obj-91", 0 ]
                }
            },
            {
                "patchline": {
                    "destination": [ "obj-63", 0 ],
                    "source": [ "obj-92", 0 ]
                }
            }
        ],
        "parameters": {
            "obj-17": [ "output", "output", 0 ],
            "obj-51": [ "ipt-threshold", "ipt-threshold", 0 ],
            "parameterbanks": {
                "0": {
                    "index": 0,
                    "name": "",
                    "parameters": [ "-", "-", "-", "-", "-", "-", "-", "-" ],
                    "buttons": [ "-", "-", "-", "-", "-", "-", "-", "-" ]
                }
            },
            "inherited_shortname": 1
        },
        "parameter_map": {
            "midi": {
                "live.dial": {
                    "srcname": "1.ctrl.0.chan.midi",
                    "min": 0.0,
                    "max": 127.0,
                    "flags": 2
                },
                "ipt-threshold": {
                    "srcname": "1.ctrl.0.chan.midi",
                    "min": -70.0,
                    "max": 0.0,
                    "flags": 2
                }
            }
        },
        "autosave": 0,
        "boxgroups": [
            {
                "boxes": [ "obj-11", "obj-18" ]
            }
        ],
        "styles": [
            {
                "name": "MP-M4L",
                "default": {
                    "accentcolor": [ 0.411764705882353, 0.411764705882353, 0.411764705882353, 1.0 ],
                    "bgcolor": [ 0.098039215686275, 0.098039215686275, 0.098039215686275, 1.0 ],
                    "bgfillcolor": {
                        "color": [ 0.266666666666667, 0.266666666666667, 0.266666666666667, 1.0 ],
                        "color1": [ 0.376470588235294, 0.384313725490196, 0.4, 1.0 ],
                        "color2": [ 0.290196078431373, 0.309803921568627, 0.301960784313725, 1.0 ],
                        "dynamiccolor": [ 0.266666666666667, 0.266666666666667, 0.266666666666667, 1.0, "live_contrast_frame", 1, 0.266666666666667, 0.266666666666667, 0.266666666666667, 1.0, "Control Border" ],
                        "type": "color"
                    },
                    "color": [ 0.333333333333333, 0.870588235294118, 0.964705882352941, 1.0 ],
                    "editing_bgcolor": [ 0.56078431372549, 0.56078431372549, 0.56078431372549, 1.0 ],
                    "elementcolor": [ 0.313725490196078, 0.313725490196078, 0.313725490196078, 1.0 ],
                    "locked_bgcolor": [ 0.56078431372549, 0.56078431372549, 0.56078431372549, 1.0 ],
                    "patchlinecolor": [ 0.313725490196078, 0.313725490196078, 0.313725490196078, 1.0 ],
                    "selectioncolor": [ 1.0, 0.694117647058824, 0.0, 1.0 ],
                    "stripecolor": [ 0.313725490196078, 0.313725490196078, 0.313725490196078, 1.0 ],
                    "textcolor": [ 0.0, 0.0, 0.0, 1.0 ]
                },
                "parentstyle": "",
                "multi": 0
            }
        ]
    }
}